<svg id="Capa_1" enable-background="new 0 0 511.99 511.99" height="512" viewBox="0 0 511.99 511.99" width="512" xmlns="http://www.w3.org/2000/svg" xmlns:xlink="http://www.w3.org/1999/xlink"><linearGradient id="SVGID_1_" gradientUnits="userSpaceOnUse" x1=".001" x2="511.989" y1="255.995" y2="255.995"><stop offset="0" stop-color="#9dd6fc"/><stop offset=".0056" stop-color="#9dd6fc"/><stop offset="1" stop-color="#d17ff7"/></linearGradient><g><g><path d="m506.134 175.563-169.707-169.705c-7.809-7.811-20.474-7.811-28.284 0l-28.284 28.284c-18.436 18.436-22.331 45.979-11.709 68.278l-110.136 110.135c-16.22-10.77-35.245-16.555-55.16-16.555-26.712 0-51.824 10.402-70.712 29.29-7.806 7.807-7.808 20.475 0 28.284l98.995 98.995-125.279 125.279c-7.81 7.811-7.811 20.474 0 28.284 7.81 7.81 20.472 7.812 28.285 0l125.279-125.278 98.995 98.994c7.811 7.81 20.474 7.812 28.284 0 18.888-18.887 29.29-44 29.29-70.71 0-19.915-5.785-38.94-16.555-55.16l110.136-110.136c22.309 10.627 49.829 6.739 68.278-11.709l28.284-28.284c7.805-7.808 7.808-20.477 0-28.286zm-235.977 259.456c-8.512-8.512-185-185-193.164-193.164 22.294-10.625 49.84-6.72 68.276 11.708.003.003.006.007.01.011.005.005.01.009.015.014l113.103 113.103c.007.007.012.014.018.021.004.004.009.008.014.012 11.325 11.331 17.562 26.393 17.562 42.414 0 9.106-2.014 17.903-5.834 25.881zm2.403-110.735-84.852-84.852 106.294-106.294 84.853 84.853zm177.004-120.436c-7.797 7.798-20.486 7.798-28.283 0l-113.137-113.137c-7.799-7.798-7.799-20.486 0-28.285l14.142-14.142 141.422 141.421z" fill="url(#SVGID_1_)"/></g></g></svg>